Coordinates
version=1
nRows=43
nColumns=12
inDegrees=yes

Units are S.I. units (second, meters, Newtons, ...)
Angles are in degrees

endheader
time	SC_y	SC_z	SC_x	AC_y	AC_z	AC_x	GH_y	GH_z	GH_yy	EL_x	PS_y
       0.0              -12.85          4.509          29.12          61.12         0.0178         -7.218         -74.64          9.477           55.8          35.29          66.19
   0.02552              -12.85          4.509          29.12          61.12         0.0155         -7.218         -74.65          9.485           55.8          35.29           66.2
   0.05105              -12.86          4.508          29.12          61.12        0.01305         -7.218         -74.67          9.493          55.79          35.29           66.2
   0.07657              -12.86          4.507          29.12          61.12        0.01045         -7.217         -74.68          9.502          55.79          35.29          66.21
    0.1021              -12.87          4.507          29.12          61.12       0.007683         -7.217         -74.69          9.511          55.78          35.29          66.22
    0.1276              -12.88          4.506          29.12          61.12        0.00473         -7.217          -74.7          9.521          55.77          35.29          66.22
    0.1531              -12.88          4.505          29.11          61.12       0.001576         -7.216         -74.71          9.532          55.76          35.28          66.23
    0.1787              -12.89          4.505          29.11          61.13      -0.001795         -7.216         -74.73          9.544          55.76          35.28          66.24
    0.2042               -12.9          4.504          29.11          61.13      -0.005406         -7.215         -74.74          9.556          55.75          35.28          66.25
    0.2297              -12.91          4.503          29.11          61.13      -0.009278         -7.215         -74.76          9.569          55.74          35.28          66.25
    0.2552              -12.92          4.502          29.11          61.13       -0.01344         -7.214         -74.78          9.583          55.73          35.28          66.26
    0.2808              -12.93          4.501          29.11          61.13       -0.01792         -7.214          -74.8          9.598          55.72          35.28          66.27
    0.3063              -12.94            4.5           29.1          61.13       -0.02274         -7.213         -74.82          9.615          55.71          35.28          66.28
    0.3318              -12.95          4.499           29.1          61.14       -0.02795         -7.213         -74.84          9.632           55.7          35.28           66.3
    0.3573              -12.97          4.498           29.1          61.14        -0.0336         -7.212         -74.86          9.651          55.68          35.28          66.31
    0.3829              -12.98          4.496           29.1          61.14       -0.03971         -7.211         -74.89          9.672          55.67          35.28          66.32
    0.4084               -13.0          4.495          29.09          61.14       -0.04636         -7.211         -74.92          9.695          55.65          35.28          66.34
    0.4339              -13.01          4.493          29.09          61.14       -0.05361          -7.21         -74.95          9.719          55.64          35.28          66.35
    0.4594              -13.03          4.491          29.08          61.15       -0.06152         -7.209         -74.98          9.746          55.62          35.27          66.37
    0.4849              -13.05           4.49          29.08          61.15       -0.07018         -7.208         -75.02          9.775           55.6          35.27          66.39
    0.5105              -13.07          4.487          29.08          61.15       -0.07969         -7.207         -75.06          9.807          55.57          35.27          66.41
     0.536               -13.1          4.485          29.07          61.16       -0.09015         -7.206          -75.1          9.843          55.55          35.27          66.43
    0.5615              -13.12          4.483          29.07          61.16        -0.1017         -7.204         -75.15          9.882          55.52          35.27          66.46
     0.587              -13.15           4.48          29.06          61.17        -0.1145         -7.203         -75.21          9.925          55.49          35.27          66.49
    0.6126              -13.19          4.477          29.05          61.17        -0.1288         -7.201         -75.27          9.974          55.46          35.26          66.52
    0.6381              -13.23          4.473          29.05          61.18        -0.1446         -7.199         -75.34          10.03          55.42          35.26          66.56
    0.6636              -13.27          4.469          29.04          61.18        -0.1624         -7.197         -75.41          10.09          55.38          35.26           66.6
    0.6891              -13.31          4.465          29.03          61.19        -0.1825         -7.195          -75.5          10.16          55.33          35.25          66.64
    0.7147              -13.37           4.46          29.02           61.2        -0.2051         -7.192         -75.59          10.23          55.28          35.25          66.69
    0.7402              -13.43          4.454          29.01          61.21        -0.2308         -7.189          -75.7          10.32          55.22          35.25          66.75
    0.7657               -13.5          4.447          28.99          61.22        -0.2601         -7.186         -75.83          10.42          55.15          35.24          66.81
    0.7912              -13.57           4.44          28.98          61.23        -0.2937         -7.182         -75.97          10.53          55.07          35.24          66.89
    0.8167              -13.66          4.431          28.96          61.24        -0.3326         -7.177         -76.14          10.66          54.98          35.23          66.98
    0.8423              -13.77          4.421          28.94          61.26        -0.3777         -7.172         -76.33          10.82          54.88          35.22          67.08
    0.8678              -13.89           4.41          28.91          61.28        -0.4305         -7.166         -76.55           11.0          54.75          35.21           67.2
    0.8933              -14.04          4.396          28.88           61.3        -0.4928         -7.159         -76.82          11.21          54.61           35.2          67.34
    0.9188              -14.21          4.379          28.85          61.33        -0.5668          -7.15         -77.14          11.46          54.44          35.19           67.5
    0.9444              -14.42           4.36          28.81          61.36        -0.6555          -7.14         -77.51          11.76          54.23          35.18           67.7
    0.9699              -14.67          4.336          28.76           61.4        -0.7627         -7.127         -77.97          12.12          53.98          35.16          67.94
    0.9954              -14.98          4.307           28.7          61.45        -0.8938         -7.112         -78.53          12.57          53.67          35.14          68.23
     1.021              -15.35          4.271          28.62           61.5         -1.056         -7.093         -79.22          13.11          53.29          35.11          68.59
     1.046              -15.83          4.226          28.53          61.58         -1.257          -7.07         -80.08           13.8          52.82          35.08          69.04
     1.072              -16.42           4.17          28.41          61.67         -1.511          -7.04         -81.16          14.66          52.23          35.03          69.61
